# xmcd
#
# Track frame offsets: 
#        182
#        15642
#        26397
#        48380
#        67637
#        79362
#        93542
#        106310
#        117195
#        138825
#
# Disc length: 2061 seconds
#
# Revision: 1
# Processed by: cddbd v1.5.2PL0 Copyright (c) Steve Scherf et al.
# Submitted via: ExactAudioCopy v0.99pb4
#
DISCID=74080b0a
DTITLE=ZZ Top - Degüello
DYEAR=1979
DGENRE=bluesrock
TTITLE0=I thank you
TTITLE1=She loves my automobile
TTITLE2=I´m bad , I´m nationwide
TTITLE3=A fool for your stockings
TTITLE4=Manic mechanic
TTITLE5=Dust my broom
TTITLE6=Lowdown in the street
TTITLE7=Hi fi mama
TTITLE8=Cheap sunglasses
TTITLE9=Esther be the one
EXTD=
EXTT0=
EXTT1=
EXTT2=
EXTT3=
EXTT4=
EXTT5=
EXTT6=
EXTT7=
EXTT8=
EXTT9=
PLAYORDER=
